# xmcd CD database file
#
# Track frame offsets:
#	150
#	27284
#	38310
#	52517
#	72367
#	83173
#	97021
#	117750
#	139868
#	152434
#	169424
#
# Disc length: 2583 seconds
#
# Revision: 1
# Processed by: cddbd v1.5.2PL0 Copyright (c) Steve Scherf et al.
# Submitted via: CDex 1.51
#
DISCID=7f0a150b
DTITLE=William Adamson - Under an East Coast Moon
DYEAR=2013
DGENRE=Blues
TTITLE0=Foggy Dew
TTITLE1=Poacher
TTITLE2=Margaret Catchpole
TTITLE3=Velvets Eleven
TTITLE4=Creek Men
TTITLE5=Laxfield Blasphemy
TTITLE6=Under an East Cost Moon
TTITLE7=Whip of the Wind
TTITLE8=Burial Blues
TTITLE9=Below Sea Level
TTITLE10=Rings of Saturn
EXTD=YEAR: 2013
EXTT0=
EXTT1=
EXTT2=
EXTT3=
EXTT4=
EXTT5=
EXTT6=
EXTT7=
EXTT8=
EXTT9=
EXTT10=
PLAYORDER=
